<svg width="44" height="16" viewBox="0 0 44 16" fill="none" xmlns="http://www.w3.org/2000/svg">
<mask id="mask0_4334_16787" style="mask-type:alpha" maskUnits="userSpaceOnUse" x="0" y="12" width="3" height="4">
<path fill-rule="evenodd" clip-rule="evenodd" d="M0 12.641H2.33505V15.9999H0V12.641Z" fill="white"/>
</mask>
<g mask="url(#mask0_4334_16787)">
<path fill-rule="evenodd" clip-rule="evenodd" d="M1.55192 14.0798L1.19147 13.9177C1.05704 13.8555 0.961663 13.7991 0.905615 13.7483C0.849567 13.6975 0.821614 13.6297 0.821614 13.5445C0.821614 13.4431 0.85926 13.3653 0.934552 13.3113C1.0097 13.2572 1.1034 13.2302 1.21563 13.2302C1.45584 13.2302 1.65756 13.3546 1.82092 13.6034L2.26298 13.2547C2.16367 13.0682 2.02517 12.9192 1.84747 12.808C1.66964 12.6966 1.45907 12.641 1.21563 12.641C0.911234 12.641 0.659791 12.7251 0.461166 12.8938C0.26268 13.0624 0.163368 13.2842 0.163368 13.5592C0.163368 13.7721 0.22981 13.9521 0.362696 14.0994C0.495581 14.2467 0.685357 14.3776 0.932024 14.4924L1.27323 14.6494C1.37577 14.6986 1.45022 14.7362 1.49672 14.7624C1.54307 14.7886 1.58479 14.827 1.62159 14.8778C1.6584 14.9286 1.6768 14.9866 1.6768 15.0521C1.6768 15.1634 1.63677 15.251 1.5567 15.3148C1.47663 15.3787 1.36608 15.4106 1.22519 15.4106C0.927248 15.4106 0.667798 15.2534 0.446838 14.9391L0 15.2829C0.121648 15.5022 0.289089 15.6766 0.502043 15.8059C0.715137 15.9352 0.956044 16 1.22519 16C1.54869 16 1.8146 15.9115 2.02278 15.7347C2.23096 15.5579 2.33505 15.3223 2.33505 15.0276C2.33505 14.8082 2.27099 14.6257 2.14288 14.4801C2.01477 14.3343 1.81783 14.2008 1.55192 14.0798Z" fill="white"/>
</g>
<path fill-rule="evenodd" clip-rule="evenodd" d="M7.26765 14.0872C7.1828 14.1741 7.06509 14.2174 6.9145 14.2174H6.37158V13.2843H6.9145C7.06186 13.2843 7.17873 13.3269 7.26526 13.412C7.35179 13.4972 7.39491 13.6086 7.39491 13.746C7.39491 13.8868 7.35249 14.0005 7.26765 14.0872ZM6.91427 12.7H5.72266V15.941H6.37135V14.7968H6.91427C7.25056 14.7968 7.52532 14.6994 7.73827 14.5047C7.95137 14.3099 8.05784 14.057 8.05784 13.7459C8.05784 13.4316 7.95137 13.1788 7.73827 12.9873C7.52532 12.7958 7.25056 12.7 6.91427 12.7Z" fill="white"/>
<path fill-rule="evenodd" clip-rule="evenodd" d="M13.6245 15.0867C13.4307 15.2864 13.1881 15.3862 12.8966 15.3862C12.5987 15.3862 12.3544 15.2871 12.1639 15.0891C11.9733 14.8911 11.8779 14.6348 11.8779 14.3205C11.8779 14.0095 11.974 13.7542 12.1663 13.5545C12.3585 13.3548 12.6019 13.2549 12.8966 13.2549C13.1881 13.2549 13.4307 13.3548 13.6245 13.5545C13.8184 13.7542 13.9152 14.0095 13.9152 14.3205C13.9152 14.6315 13.8184 14.8869 13.6245 15.0867ZM12.8922 12.641C12.4244 12.641 12.0273 12.8022 11.7006 13.1246C11.3738 13.4471 11.2104 13.8457 11.2104 14.3203C11.2104 14.7951 11.3738 15.1937 11.7006 15.5161C12.0273 15.8386 12.4244 15.9998 12.8922 15.9998C13.3598 15.9998 13.7586 15.8386 14.0886 15.5161C14.4185 15.1937 14.5834 14.7951 14.5834 14.3203C14.5834 13.8457 14.4185 13.4471 14.0886 13.1246C13.7586 12.8022 13.3598 12.641 12.8922 12.641Z" fill="white"/>
<path fill-rule="evenodd" clip-rule="evenodd" d="M19.4923 14.0848C19.4074 14.1699 19.2897 14.2124 19.1391 14.2124H18.5962V13.2843H19.1391C19.2865 13.2843 19.4033 13.3269 19.4899 13.412C19.5764 13.4972 19.6195 13.6084 19.6195 13.746C19.6195 13.8867 19.5771 13.9997 19.4923 14.0848ZM20.1334 14.2936C20.2327 14.1348 20.2825 13.9523 20.2825 13.746C20.2825 13.4317 20.176 13.1788 19.9629 12.9873C19.7499 12.7959 19.4752 12.7001 19.1389 12.7001H17.9473V15.9411H18.596V14.7969H19.0716L19.8932 15.9411H20.6235L19.7251 14.6644C19.898 14.576 20.0342 14.4523 20.1334 14.2936Z" fill="white"/>
<path fill-rule="evenodd" clip-rule="evenodd" d="M23.4214 13.299H24.4352V15.941H25.0839V13.299H26.1026V12.6998H23.4214V13.299Z" fill="white"/>
<mask id="mask1_4334_16787" style="mask-type:alpha" maskUnits="userSpaceOnUse" x="29" y="12" width="3" height="4">
<path fill-rule="evenodd" clip-rule="evenodd" d="M29.1245 12.641H31.4596V15.9999H29.1245V12.641Z" fill="white"/>
</mask>
<g mask="url(#mask1_4334_16787)">
<path fill-rule="evenodd" clip-rule="evenodd" d="M30.6764 14.0798L30.316 13.9177C30.1816 13.8555 30.0862 13.7991 30.0301 13.7483C29.9741 13.6975 29.9461 13.6297 29.9461 13.5445C29.9461 13.4431 29.9838 13.3653 30.0591 13.3113C30.1342 13.2572 30.2279 13.2302 30.3401 13.2302C30.5804 13.2302 30.7821 13.3546 30.9454 13.6034L31.3875 13.2547C31.2882 13.0682 31.1497 12.9192 30.972 12.808C30.7941 12.6966 30.5836 12.641 30.3401 12.641C30.0357 12.641 29.7843 12.7251 29.5857 12.8938C29.3872 13.0624 29.2877 13.2842 29.2877 13.5592C29.2877 13.7721 29.3543 13.9521 29.4872 14.0994C29.6201 14.2467 29.8099 14.3776 30.0565 14.4924L30.3977 14.6494C30.5003 14.6986 30.5747 14.7362 30.6212 14.7624C30.6676 14.7886 30.7093 14.827 30.7461 14.8778C30.7829 14.9286 30.8013 14.9866 30.8013 15.0521C30.8013 15.1634 30.7613 15.251 30.6812 15.3148C30.6011 15.3787 30.4906 15.4106 30.3497 15.4106C30.0518 15.4106 29.7923 15.2534 29.5713 14.9391L29.1245 15.2829C29.2462 15.5022 29.4136 15.6766 29.6266 15.8059C29.8395 15.9352 30.0806 16 30.3497 16C30.6732 16 30.9391 15.9115 31.1473 15.7347C31.3555 15.5579 31.4596 15.3223 31.4596 15.0276C31.4596 14.8082 31.3955 14.6257 31.2674 14.4801C31.1393 14.3343 30.9423 14.2008 30.6764 14.0798Z" fill="white"/>
</g>
<path fill-rule="evenodd" clip-rule="evenodd" d="M14.6688 7.16757C13.4968 7.16757 12.5435 6.19318 12.5435 4.99541C12.5435 3.79763 13.4968 2.82324 14.6688 2.82324C15.8407 2.82324 16.7941 3.79763 16.7941 4.99541C16.7941 6.19318 15.8407 7.16757 14.6688 7.16757ZM14.6688 1.62292C12.8494 1.62292 11.3691 3.13573 11.3691 4.99532C11.3691 6.8549 12.8494 8.36771 14.6688 8.36771C16.4882 8.36771 17.9685 6.8549 17.9685 4.99532C17.9685 3.13573 16.4882 1.62292 14.6688 1.62292Z" fill="white"/>
<path fill-rule="evenodd" clip-rule="evenodd" d="M14.6689 8.79057C12.6214 8.79057 10.9556 7.08814 10.9556 4.99549C10.9556 2.9027 12.6214 1.20027 14.6689 1.20027C16.7164 1.20027 18.3823 2.9027 18.3823 4.99549C18.3823 7.08814 16.7164 8.79057 14.6689 8.79057ZM19.5566 4.99545C19.5566 2.241 17.364 0 14.6689 0C11.9739 0 9.78125 2.241 9.78125 4.99545C9.78125 7.74991 11.9739 9.99076 14.6689 9.99076C17.364 9.99076 19.5566 7.74991 19.5566 4.99545Z" fill="white"/>
<path fill-rule="evenodd" clip-rule="evenodd" d="M32.9569 6.97727L30.8369 1.82784C30.7835 1.6981 30.6695 1.61945 30.5318 1.61743L30.5262 1.56317V1.61743C30.3912 1.61743 30.277 1.69262 30.221 1.8186C29.2134 4.08009 27.9753 6.83195 27.799 7.09878C27.1101 8.14099 25.965 8.7647 24.736 8.76715H24.7287C22.715 8.7673 21.0541 7.09387 21.026 5.03658C21.0121 4.01501 21.3907 3.05217 22.0921 2.32542C22.7934 1.59853 23.7298 1.19821 24.7286 1.19821C25.4834 1.19821 26.2097 1.42896 26.8289 1.8655C26.8345 1.8694 26.8463 1.87748 26.8589 1.88599C26.8623 1.8883 26.8657 1.89061 26.8691 1.89292C27.0227 1.54975 27.1878 1.18046 27.3646 0.783606C26.5866 0.273757 25.6805 0 24.7385 0C23.4234 0 22.1907 0.527022 21.2672 1.48409C20.3438 2.44101 19.8454 3.70849 19.8638 5.05318C19.9006 7.76405 22.0864 9.96565 24.7385 9.96551H24.7481C26.3663 9.96219 27.8737 9.14135 28.7803 7.76954C28.8671 7.63821 29.005 7.42968 30.5053 4.08788L31.8862 7.44195C32.3331 8.52731 33.1921 9.34295 34.2322 9.73201C34.2321 9.77531 34.232 9.81846 34.2318 9.86247C34.2235 12.4246 34.2244 15.9361 34.2244 15.9615L35.4121 15.9609V15.9436C35.4119 15.3629 35.4115 11.377 35.4233 8.72978C34.3155 8.6569 33.3735 7.98918 32.9569 6.97727Z" fill="white"/>
<path fill-rule="evenodd" clip-rule="evenodd" d="M43.5334 2.88412C42.4035 0.427954 39.5176 -0.654519 37.1003 0.471247C35.6279 1.15701 34.5867 2.54066 34.3149 4.17267C34.2961 4.2861 34.2741 4.41742 34.2564 5.9194L32.3557 1.30262C32.0516 0.56375 31.3483 0.0787224 30.564 0.0670332C29.7809 0.0559213 29.0631 0.519014 28.738 1.2485C27.2895 4.49867 26.6221 5.93816 26.4725 6.21755C26.0771 6.79595 25.4332 7.14085 24.7429 7.14215H24.7388C23.5894 7.14215 22.6419 6.18825 22.6259 5.01385C22.618 4.4307 22.8341 3.88116 23.2341 3.46641C23.6345 3.05166 24.1687 2.82308 24.7387 2.82308C25.2797 2.82308 25.7931 3.03161 26.1864 3.40999C26.3366 3.07836 26.5043 2.70618 26.6903 2.29187C26.6839 2.28711 26.6775 2.28206 26.6705 2.27657C26.6419 2.25435 26.6095 2.22895 26.5919 2.21668C26.043 1.8295 25.3986 1.62487 24.7287 1.62487C23.8426 1.62487 23.0118 1.98001 22.3895 2.62508C21.7673 3.26986 21.4315 4.12418 21.4437 5.03059C21.4687 6.85569 22.9424 8.3405 24.7289 8.3405H24.7355C25.8258 8.33834 26.8418 7.78476 27.4532 6.85988C27.5765 6.67343 28.4469 4.77156 29.8412 1.64175C29.9651 1.36352 30.2277 1.19064 30.5265 1.19064L30.5383 1.19078C30.842 1.19525 31.1041 1.37593 31.222 1.66239L33.342 6.81168C33.6995 7.67999 34.4757 8.23414 35.4256 8.30255C35.4379 5.82979 35.4583 4.49203 35.486 4.32593C35.6923 3.08673 36.4828 2.03615 37.6003 1.51562C39.4353 0.66116 41.6257 1.48258 42.4834 3.34678C42.9083 4.27066 42.9526 5.30666 42.6076 6.26402C42.2626 7.22152 41.5719 7.98074 40.6629 8.40198C40.2023 8.61527 39.5394 8.73764 38.8441 8.73764L35.8414 8.73635C35.8332 10.5506 35.829 13.7908 35.8297 15.9434V15.9607L36.9869 15.9602C36.9864 14.502 36.9885 11.7034 36.9939 9.9855L38.8309 9.98651C39.7002 9.98651 40.5185 9.82921 41.1349 9.54362C42.3327 8.9886 43.2426 7.98838 43.6971 6.72711C44.1515 5.46584 44.0933 4.10109 43.5334 2.88412Z" fill="white"/>
<path fill-rule="evenodd" clip-rule="evenodd" d="M37.0078 7.16244C37.0169 5.85326 37.0294 4.87584 37.0462 4.60266C37.1751 3.91329 37.621 3.33143 38.2461 3.0405C39.2938 2.55244 40.5443 3.02131 41.034 4.0856C41.2769 4.61334 41.3021 5.20501 41.1052 5.75166C40.9081 6.29831 40.5138 6.73182 39.9946 6.97238C39.8044 7.06041 39.3857 7.16345 38.8318 7.16345L37.0078 7.16244ZM40.4908 8.01328C41.2972 7.63966 41.91 6.96588 42.2162 6.11646C42.5222 5.2672 42.483 4.34808 42.1058 3.5284C41.345 1.87446 39.4016 1.14569 37.7738 1.90389C36.7822 2.36569 36.081 3.29779 35.8978 4.39744C35.8817 4.49485 35.8592 5.25392 35.8438 8.30955L38.8445 8.31099C39.4824 8.31099 40.0825 8.20247 40.4908 8.01328Z" fill="white"/>
<path fill-rule="evenodd" clip-rule="evenodd" d="M1.28346 2.70191C1.28346 2.42253 1.44795 2.17619 1.70263 2.07445C1.95716 1.97286 2.24147 2.03967 2.42689 2.24488L7.2095 7.53949C7.31022 7.6509 7.43201 7.6141 7.46685 7.6001C7.50182 7.5861 7.61575 7.52881 7.61575 7.37714L7.61279 0.164646L6.44408 0.165224L6.44604 4.93353L2.51076 0.577086C2.12502 0.150071 1.52268 0.00821372 0.992969 0.219917C0.463395 0.431621 0.114746 0.953304 0.114746 1.53459V9.81354H1.28346V2.70191Z" fill="white"/>
<path fill-rule="evenodd" clip-rule="evenodd" d="M8.03783 0.164618L8.04078 7.37711C8.04092 7.6565 7.87643 7.90284 7.62189 8.00472C7.36722 8.10646 7.08291 8.03965 6.89735 7.83429L2.11474 2.53968C2.01416 2.42842 1.89237 2.46522 1.8574 2.47921C1.82242 2.49307 1.7085 2.5505 1.7085 2.70203V9.81365H2.87721V5.14463L6.81391 9.50266C7.08066 9.79792 7.45094 9.95681 7.82909 9.95681C7.99793 9.95681 8.16847 9.92521 8.33197 9.85983C8.86169 9.64799 9.2102 9.12587 9.20992 8.54459L9.2064 0.164185L8.03783 0.164618Z" fill="white"/>
</svg>
