<svg width="14" height="14" viewBox="0 0 14 14" fill="none" xmlns="http://www.w3.org/2000/svg">
<path fill-rule="evenodd" clip-rule="evenodd" d="M3.15 1.4H10.85C11.8165 1.4 12.6 2.1835 12.6 3.15V10.85C12.6 11.8165 11.8165 12.6 10.85 12.6H9.14534V9.80667H10.939L11.2056 7.74051H9.15719V6.42379C9.15719 5.82623 9.32373 5.42256 10.1806 5.42256H11.2633V3.57856C10.7363 3.52472 10.2071 3.49855 9.67707 3.50006C8.10428 3.50006 7.02734 4.45999 7.02734 6.22236V7.74347H5.25V9.80963H7.02734V12.6H3.15C2.1835 12.6 1.4 11.8165 1.4 10.85V3.15C1.4 2.1835 2.1835 1.4 3.15 1.4ZM0 3.15C0 1.4103 1.4103 0 3.15 0H10.85C12.5897 0 14 1.4103 14 3.15V10.85C14 12.5897 12.5897 14 10.85 14H3.15C1.4103 14 0 12.5897 0 10.85V3.15Z" fill="white"/>
</svg>
