<svg width="14" height="14" viewBox="0 0 14 14" fill="none" xmlns="http://www.w3.org/2000/svg">
<path fill-rule="evenodd" clip-rule="evenodd" d="M3.15 1.4H10.85C11.8165 1.4 12.6 2.1835 12.6 3.15V10.85C12.6 11.8165 11.8165 12.6 10.85 12.6H3.15C2.1835 12.6 1.4 11.8165 1.4 10.85V3.15C1.4 2.1835 2.1835 1.4 3.15 1.4ZM0 3.15C0 1.4103 1.4103 0 3.15 0H10.85C12.5897 0 14 1.4103 14 3.15V10.85C14 12.5897 12.5897 14 10.85 14H3.15C1.4103 14 0 12.5897 0 10.85V3.15ZM10.2459 3.02389C10.3891 2.88068 10.5834 2.80023 10.7859 2.80023C10.9884 2.80023 11.1827 2.88068 11.3259 3.02389C11.4691 3.1671 11.5495 3.36134 11.5495 3.56386C11.5495 3.76639 11.4691 3.96063 11.3259 4.10384C11.1827 4.24705 10.9884 4.3275 10.7859 4.3275C10.5834 4.3275 10.3891 4.24705 10.2459 4.10384C10.1027 3.96063 10.0223 3.76639 10.0223 3.56386C10.0223 3.36134 10.1027 3.1671 10.2459 3.02389ZM3.14954 7.38205C3.14954 5.2767 4.86238 3.56386 6.96773 3.56386C9.07307 3.56386 10.7859 5.2767 10.7859 7.38205C10.7859 9.48739 9.07307 11.2002 6.96773 11.2002C4.86238 11.2002 3.14954 9.48739 3.14954 7.38205ZM9.25863 7.38205C9.25863 6.11899 8.23078 5.09114 6.96773 5.09114C5.70467 5.09114 4.67682 6.11899 4.67682 7.38205C4.67682 8.6451 5.70467 9.67295 6.96773 9.67295C8.23078 9.67295 9.25863 8.6451 9.25863 7.38205Z" fill="white"/>
</svg>
