<svg width="14" height="14" viewBox="0 0 14 14" fill="none" xmlns="http://www.w3.org/2000/svg">
<path fill-rule="evenodd" clip-rule="evenodd" d="M3.15 1.4H10.85C11.8165 1.4 12.6 2.1835 12.6 3.15V10.85C12.6 11.8165 11.8165 12.6 10.85 12.6H3.15C2.1835 12.6 1.4 11.8165 1.4 10.85V3.15C1.4 2.1835 2.1835 1.4 3.15 1.4ZM0 3.15C0 1.4103 1.4103 0 3.15 0H10.85C12.5897 0 14 1.4103 14 3.15V10.85C14 12.5897 12.5897 14 10.85 14H3.15C1.4103 14 0 12.5897 0 10.85V3.15ZM2.79909 3.97648C2.79909 3.50454 3.17163 3.15011 3.79265 3.15011C4.35136 3.15011 4.72394 3.50454 4.72394 3.97648C4.72394 4.44843 4.3514 4.80151 3.73038 4.80151C3.17167 4.80151 2.79909 4.44843 2.79909 3.97648ZM2.84863 10.5001V5.68432H4.67723V10.5001H2.84863ZM6.18598 10.5001V5.68432H8.01459V6.35616C8.2501 5.96402 8.72204 5.68432 9.60684 5.68432C10.4916 5.68432 11.1991 6.35635 11.1991 7.86782V10.5001H9.42992V7.86782C9.42992 7.13995 8.9571 6.97158 8.78028 6.97158C8.60347 6.97158 8.01459 7.08422 8.01459 7.86782V10.5001H6.18598Z" fill="white"/>
</svg>
