<svg width="14" height="14" viewBox="0 0 14 14" fill="none" xmlns="http://www.w3.org/2000/svg">
<path fill-rule="evenodd" clip-rule="evenodd" d="M3.15 1.4H10.85C11.8165 1.4 12.6 2.1835 12.6 3.15V10.85C12.6 11.8165 11.8165 12.6 10.85 12.6H3.15C2.1835 12.6 1.4 11.8165 1.4 10.85V3.15C1.4 2.1835 2.1835 1.4 3.15 1.4ZM0 3.15C0 1.4103 1.4103 0 3.15 0H10.85C12.5897 0 14 1.4103 14 3.15V10.85C14 12.5897 12.5897 14 10.85 14H3.15C1.4103 14 0 12.5897 0 10.85V3.15ZM7.17546 8.78511V3.15011H8.83796C8.83796 3.48418 9.08719 3.9082 9.48737 4.24598C9.88755 4.58377 10.4611 4.76011 10.5005 4.76011V6.37011C9.8846 6.37011 9.35013 6.10554 8.83796 5.75221V8.78511C8.83796 10.1093 7.71159 11.2001 6.34421 11.2001C4.97682 11.2001 3.85046 10.1093 3.85046 8.78511C3.85046 7.46091 4.97682 6.37011 6.34421 6.37011V7.98011C5.87452 7.98011 5.51296 8.33027 5.51296 8.78511C5.51296 9.23996 5.87452 9.59011 6.34421 9.59011C6.81389 9.59011 7.17546 9.23996 7.17546 8.78511Z" fill="white"/>
</svg>
