<svg width="14" height="14" viewBox="0 0 14 14" fill="none" xmlns="http://www.w3.org/2000/svg">
<path fill-rule="evenodd" clip-rule="evenodd" d="M3.15 1.4H10.85C11.8165 1.4 12.6 2.1835 12.6 3.15V10.85C12.6 11.8165 11.8165 12.6 10.85 12.6H3.15C2.1835 12.6 1.4 11.8165 1.4 10.85V3.15C1.4 2.1835 2.1835 1.4 3.15 1.4ZM0 3.15C0 1.4103 1.4103 0 3.15 0H10.85C12.5897 0 14 1.4103 14 3.15V10.85C14 12.5897 12.5897 14 10.85 14H3.15C1.4103 14 0 12.5897 0 10.85V3.15ZM7.05992 5.54162C7.05992 4.60877 7.80733 3.84989 8.72756 3.84989C9.18768 3.84989 9.64634 4.02508 9.93408 4.37482C10.3365 4.3163 10.6812 4.1417 10.969 3.96683C10.8543 4.37508 10.567 4.66704 10.2223 4.89975C10.567 4.84123 10.8548 4.78293 11.1995 4.60738C10.9681 4.95847 10.6816 5.24977 10.3939 5.48315V5.71704C10.3939 7.93316 8.72627 10.4999 5.67917 10.4999C4.75961 10.4999 3.89673 10.2071 3.14954 9.74106H3.55172C4.2989 9.74106 5.04672 9.44896 5.62153 9.04071C4.87434 9.04071 4.29923 8.51687 4.06917 7.87524C4.13628 7.87524 4.20377 7.89525 4.25978 7.91186C4.29949 7.92364 4.33344 7.93371 4.35737 7.93371H4.35775C4.52992 7.93371 4.64494 7.93371 4.81718 7.87524C4.07 7.70037 3.49539 7.05847 3.49539 6.24197C3.72544 6.35832 3.95633 6.41735 4.2434 6.47586C3.78328 6.06762 3.49539 5.59981 3.49539 5.01669C3.49539 4.72479 3.55357 4.43411 3.72595 4.20073C4.53082 5.19209 5.73788 5.89177 7.11756 5.94961C7.11756 5.89734 7.10593 5.84498 7.09311 5.78731C7.0774 5.71662 7.05992 5.63793 7.05992 5.54162Z" fill="white"/>
</svg>
