<svg width="14" height="14" viewBox="0 0 14 14" fill="none" xmlns="http://www.w3.org/2000/svg">
<path fill-rule="evenodd" clip-rule="evenodd" d="M3.15 1.4H10.85C11.8165 1.4 12.6 2.1835 12.6 3.15V10.85C12.6 11.8165 11.8165 12.6 10.85 12.6H3.15C2.1835 12.6 1.4 11.8165 1.4 10.85V3.15C1.4 2.1835 2.1835 1.4 3.15 1.4ZM0 3.15C0 1.4103 1.4103 0 3.15 0H10.85C12.5897 0 14 1.4103 14 3.15V10.85C14 12.5897 12.5897 14 10.85 14H3.15C1.4103 14 0 12.5897 0 10.85V3.15ZM3.99098 4.01446C4.59158 3.84987 6.99954 3.84989 6.99954 3.84989C6.99954 3.84989 9.40751 3.84987 10.0081 4.01446C10.3392 4.10502 10.6001 4.37182 10.6886 4.71045C10.8496 5.3247 10.8495 6.99989 10.8495 6.99989C10.8495 6.99989 10.8496 8.67508 10.6886 9.28933C10.6001 9.62795 10.3392 9.89475 10.0081 9.98531C9.40751 10.1499 6.99954 10.1499 6.99954 10.1499C6.99954 10.1499 4.59158 10.1499 3.99098 9.98531C3.65988 9.89475 3.39901 9.62835 3.31046 9.28933C3.14953 8.67508 3.14954 6.99989 3.14954 6.99989C3.14954 6.99989 3.14953 5.3247 3.31046 4.71045C3.39901 4.37182 3.65949 4.10502 3.99098 4.01446ZM9.80884 4.77504C9.49853 4.68999 8.10911 4.63739 6.99954 4.63739C5.88997 4.63739 4.50017 4.68999 4.19025 4.77504C4.1248 4.79276 4.07147 4.84732 4.05414 4.91347C3.96136 5.26785 3.91954 6.34705 3.91954 6.99989C3.91954 7.65272 3.96136 8.73194 4.05414 9.08553C4.07185 9.15247 4.12518 9.20701 4.19025 9.22473C4.50094 9.30978 5.89036 9.36239 6.99954 9.36239C8.10911 9.36239 9.49892 9.30978 9.80884 9.22473C9.87429 9.20662 9.92762 9.15207 9.94494 9.08553C10.0377 8.73155 10.0795 7.65272 10.0795 6.99989C10.0795 6.34705 10.0377 5.26783 9.94494 4.91424C9.92723 4.8473 9.87391 4.79276 9.80884 4.77504ZM8.53954 6.99989L6.22954 8.36417V5.6356L8.53954 6.99989Z" fill="white"/>
</svg>
